# xmcd
#
# Track frame offsets:
#	150
#	24356
#	45401
#	61203
#	82236
#	114626
#	128310
#	148507
#	172723
#	186321
#
# Disc length: 2729 seconds
#
# Revision: 1
# Processed by: cddbd v1.4PL0 Copyright (c) Steve Scherf et al.
# Submitted via: audiograbber 1.80
#
DISCID=790aa70a
DTITLE=Eugene Smith - Almost Greatest Hits
DYEAR=1900
DGENRE=
TTITLE0=Amy
TTITLE1=The Party Band
TTITLE2=Love Lies
TTITLE3=Country On The Juke Box
TTITLE4=Lovin You So Easy
TTITLE5=Those Lovin Ways
TTITLE6=Johnny Bailey 
TTITLE7=Harmony
TTITLE8=Work Song
TTITLE9=Rock By Day Roll By Night
EXTD=
EXTT0=
EXTT1=
EXTT2=
EXTT3=
EXTT4=
EXTT5=
EXTT6=
EXTT7=
EXTT8=
EXTT9=
PLAYORDER=
